<svg width="15" height="15" viewBox="0 0 15 15" fill="none" xmlns="http://www.w3.org/2000/svg">
    <path d="M14.1176 5.593C14.6042 5.593 15 5.19861 15 4.71385V3.57552C15 3.21457 14.783 2.89464 14.4471 2.75993L7.83084 0.064442C7.6154 -0.0220374 7.38225 -0.0205135 7.17228 0.0632112C7.1674 0.0651746 7.28302 0.0180812 0.55294 2.75996C0.21697 2.89464 0 3.2146 0 3.57555V4.7139C0 5.19867 0.395823 5.59306 0.882351 5.59306H1.41176V12.216H0.882351C0.395823 12.216 0 12.6104 0 13.0952V14.1208C0 14.6056 0.395823 15 0.882351 15H14.1176C14.6041 15 15 14.6056 15 14.1208V13.0952C15 12.6104 14.6041 12.216 14.1176 12.216H13.5882V5.59306H14.1176V5.593ZM14.1176 13.0951C14.1182 14.1443 14.1206 14.1208 14.1176 14.1208H0.882381V13.0951H14.1176ZM2.29414 12.216V5.593H3.29414V12.216H2.29414ZM4.17649 12.216V5.593H6.11766V12.216H4.17649ZM7.00002 12.216V5.593H8.00001V12.216H7.00002ZM8.88237 12.216V5.593H10.8235V12.216H8.88237ZM11.7059 12.216V5.593H12.7059V12.216H11.7059ZM0.882381 4.71385C0.882381 3.48763 0.881057 3.57605 0.885469 3.57426L7.50001 0.879447L14.1146 3.57426C14.1191 3.57607 14.1176 3.49053 14.1176 4.71385C13.971 4.71385 1.05665 4.71385 0.882381 4.71385Z" fill="#639EB5"/>
    <path d="M7.50001 1.90055C7.25637 1.90055 7.05884 2.09737 7.05884 2.34013V3.27789C7.05884 3.52066 7.25637 3.71747 7.50001 3.71747C7.74366 3.71747 7.94119 3.52066 7.94119 3.27789V2.34013C7.94119 2.09737 7.74366 1.90055 7.50001 1.90055Z" fill="#639EB5"/>
</svg>
