<svg width="15" height="15" viewBox="0 0 15 15" fill="none" xmlns="http://www.w3.org/2000/svg">
    <path d="M15 2.20459V0H12.7954V0.878906H13.4996L12.0712 2.30736C11.5129 2.01498 10.8782 1.84928 10.2055 1.84928C9.201 1.84928 8.23816 2.22454 7.5 2.89192C6.76187 2.22454 5.79899 1.84928 4.79452 1.84928C2.56948 1.84928 0.759287 3.65947 0.759287 5.88448C0.759287 7.02973 1.27134 8.22155 2.2812 9.42688C2.6543 9.87217 3.09328 10.3211 3.60182 10.7767L2.78977 11.5888L1.91707 11.2133L0 13.1304L1.30717 13.6928L1.86958 15L3.78671 13.0829L3.41121 12.2102L4.27274 11.3487C5.13935 12.0596 6.31017 12.8701 7.49997 13.6049C9.75782 12.2208 11.6454 10.7303 12.7188 9.42688C13.7287 8.22155 14.2407 7.02973 14.2407 5.88448C14.2407 4.65299 13.6859 3.54876 12.8135 2.80799L14.1211 1.50038V2.20459H15ZM2.16469 13.462L1.97613 13.0238L1.53803 12.8353L2.1172 12.2561L2.55533 12.4447L2.74386 12.8828L2.16469 13.462ZM13.3618 5.88448C13.3618 6.83086 12.9311 7.80495 12.0451 8.86242C11.0762 10.0189 9.54776 11.2644 7.5 12.5668C6.51023 11.9373 5.6422 11.3211 4.89961 10.7218L7.81072 7.81072L7.18925 7.18925L4.22616 10.1524C3.73043 9.71177 3.3058 9.28122 2.95491 8.86242C2.06892 7.80492 1.63822 6.83083 1.63822 5.88448C1.63822 4.1441 3.05414 2.72818 4.79455 2.72818C6.00747 2.73214 6.83669 3.34866 7.50003 4.18441C8.25035 3.22919 9.1033 2.73926 10.2055 2.72818C11.9459 2.72818 13.3618 4.1441 13.3618 5.88448Z" fill="#639EB5"/>
</svg>
