<svg clip-rule="evenodd" fill-rule="evenodd" height="2.24972in" image-rendering="optimizeQuality" shape-rendering="geometricPrecision" text-rendering="geometricPrecision" viewBox="0 0 1707.38 1707.37" width="2.24972in" xmlns="http://www.w3.org/2000/svg"><g fill-rule="nonzero"><path d="m853.69 0c-471.48 0-853.69 382.21-853.69 853.69 0 471.43 382.14 853.61 853.55 853.69h.27c471.42-.07 853.55-382.25 853.55-853.69 0-471.48-382.21-853.69-853.69-853.69z" fill="#eff3f9"/><path d="m650.54 1420.92c-61.32 0-111.03-49.71-111.03-111.03s49.71-111.03 111.03-111.03 111.03 49.7 111.03 111.03c0 61.32-49.71 111.03-111.03 111.03z" fill="#fff"/><path d="m426.02 1191.13c-17.9 0-32.4-14.51-32.4-32.41s14.51-32.41 32.4-32.41c17.9 0 32.41 14.51 32.41 32.41s-14.51 32.41-32.41 32.41z" fill="#fff"/><path d="m957.53 1353.09c-11.93 0-21.59-9.67-21.59-21.6s9.67-21.59 21.59-21.59c11.93 0 21.59 9.67 21.59 21.59 0 11.93-9.67 21.6-21.59 21.6z" fill="#fff"/><path d="m1256.38 333.44c-11.93 0-21.6-9.67-21.6-21.59 0-11.93 9.67-21.59 21.6-21.59 11.92 0 21.59 9.67 21.59 21.59 0 11.93-9.67 21.59-21.59 21.59z" fill="#fff"/><path d="m1127.41 579.16h48.35v-4.21c0-14.2-11.52-25.72-25.73-25.72h-138.79c-14.21 0-25.73 11.52-25.73 25.72v410.24h107.86v-372c0-18.8 15.23-34.03 34.02-34.03z" fill="#e0e8f6"/><path d="m839.5 985.19h117.96v-354.92h-117.96z" fill="#d0dbf0"/><path d="m1132.45 529.71h-103.61c-3.96 0-7.17-3.21-7.17-7.17v-42.04c0-3.96 3.21-7.17 7.17-7.17h103.61c3.96 0 7.17 3.21 7.17 7.17v42.04c0 3.96-3.21 7.17-7.17 7.17z" fill="#e0e8f6"/><path d="m813.95 985.19h-240.14v-604.24c0-13.26 12.46-22.99 25.33-19.78l199.35 49.73c9.09 2.26 15.45 10.42 15.45 19.78v554.51z" fill="#d0dbf0"/><path d="m467.36 985.19v-208.86c0-18.73 15.18-33.91 33.91-33.91h38.47v242.77z" fill="#e0e8f6"/><path d="m1072.12 945.44c-4.97 0-9-4.03-9-9.01v-317.04c0-4.97 4.03-9.01 9-9.01 4.98 0 9.01 4.03 9.01 9.01v317.04c0 4.97-4.03 9.01-9.01 9.01z" fill="#c0cbe2"/><path d="m1022.15 945.44c-4.97 0-9.01-4.03-9.01-9.01v-317.04c0-4.97 4.03-9.01 9.01-9.01 4.97 0 9.01 4.03 9.01 9.01v317.04c0 4.97-4.03 9.01-9.01 9.01z" fill="#c0cbe2"/><g fill="#c1cae7"><path d="m768.41 501.52h-142.17c-7.79 0-14.09-6.31-14.09-14.09 0-7.79 6.3-14.1 14.09-14.1h142.17c7.78 0 14.09 6.31 14.09 14.1 0 7.78-6.31 14.09-14.09 14.09z"/><path d="m768.41 563.32h-142.17c-7.79 0-14.09-6.31-14.09-14.09 0-7.79 6.3-14.1 14.09-14.1h142.17c7.78 0 14.09 6.31 14.09 14.1 0 7.78-6.31 14.09-14.09 14.09z"/><path d="m768.41 625.11h-142.17c-7.79 0-14.09-6.31-14.09-14.09s6.3-14.1 14.09-14.1h142.17c7.78 0 14.09 6.31 14.09 14.1 0 7.78-6.31 14.09-14.09 14.09z"/><path d="m768.41 686.91h-142.17c-7.79 0-14.09-6.31-14.09-14.1s6.3-14.09 14.09-14.09h142.17c7.78 0 14.09 6.31 14.09 14.09 0 7.79-6.31 14.1-14.09 14.1z"/><path d="m768.41 748.71h-142.17c-7.79 0-14.09-6.31-14.09-14.09s6.3-14.1 14.09-14.1h142.17c7.78 0 14.09 6.31 14.09 14.1 0 7.78-6.31 14.09-14.09 14.09z"/><path d="m768.41 810.51h-142.17c-7.79 0-14.09-6.31-14.09-14.09 0-7.79 6.3-14.1 14.09-14.1h142.17c7.78 0 14.09 6.31 14.09 14.1 0 7.78-6.31 14.09-14.09 14.09z"/><path d="m768.41 872.3h-142.17c-7.79 0-14.09-6.31-14.09-14.09 0-7.79 6.3-14.1 14.09-14.1h142.17c7.78 0 14.09 6.31 14.09 14.1 0 7.78-6.31 14.09-14.09 14.09z"/><path d="m768.41 934.1h-142.17c-7.79 0-14.09-6.31-14.09-14.09 0-7.79 6.3-14.1 14.09-14.1h142.17c7.78 0 14.09 6.31 14.09 14.1s-6.31 14.09-14.09 14.09z"/></g><path d="m411.97 985.19h-190.24v-375.28c0-16.99 13.77-30.75 30.75-30.75h128.74c16.98 0 30.75 13.77 30.75 30.75z" fill="#e0e8f6"/><path d="m375.95 660.07h-118.2c-6.62 0-11.99-5.36-11.99-11.99v-.45c0-6.62 5.36-11.99 11.99-11.99h118.2c6.62 0 11.99 5.37 11.99 11.99v.45c0 6.62-5.37 11.99-11.99 11.99z" fill="#c1cae7"/><path d="m375.95 713.63h-118.2c-6.62 0-11.99-5.37-11.99-11.99v-.45c0-6.62 5.36-11.99 11.99-11.99h118.2c6.62 0 11.99 5.37 11.99 11.99v.45c0 6.62-5.37 11.99-11.99 11.99z" fill="#c1cae7"/><path d="m375.95 767.17h-118.2c-6.62 0-11.99-5.37-11.99-11.98v-.46c0-6.62 5.36-11.99 11.99-11.99h118.2c6.62 0 11.99 5.37 11.99 11.99v.46c0 6.62-5.37 11.98-11.99 11.98z" fill="#c1cae7"/><path d="m375.95 820.72h-118.2c-6.62 0-11.99-5.37-11.99-11.98v-.46c0-6.62 5.36-11.98 11.99-11.98h118.2c6.62 0 11.99 5.37 11.99 11.98v.46c0 6.62-5.37 11.98-11.99 11.98z" fill="#c1cae7"/><path d="m375.95 874.28h-118.2c-6.62 0-11.99-5.37-11.99-11.99v-.45c0-6.62 5.36-11.99 11.99-11.99h118.2c6.62 0 11.99 5.37 11.99 11.99v.45c0 6.62-5.37 11.99-11.99 11.99z" fill="#c1cae7"/><path d="m375.95 927.82h-118.2c-6.62 0-11.99-5.37-11.99-11.98v-.45c0-6.62 5.36-11.99 11.99-11.99h118.2c6.62 0 11.99 5.37 11.99 11.99v.45c0 6.62-5.37 11.98-11.99 11.98z" fill="#c1cae7"/><path d="m1337.75 1002.23h-232.86v-372.01c0-18.79 15.23-34.02 34.02-34.02h164.82c18.79 0 34.02 15.23 34.02 34.02z" fill="#e0e8f6"/><path d="m1296.12 677.11h-149.59c-6.75 0-12.22-5.46-12.22-12.21s5.47-12.21 12.22-12.21h149.59c6.75 0 12.22 5.47 12.22 12.21 0 6.75-5.47 12.21-12.22 12.21z" fill="#c1cae7"/><path d="m1296.12 730.66h-149.59c-6.75 0-12.22-5.47-12.22-12.21 0-6.75 5.47-12.22 12.22-12.22h149.59c6.75 0 12.22 5.47 12.22 12.22 0 6.74-5.47 12.21-12.22 12.21z" fill="#c1cae7"/><path d="m1296.12 784.21h-149.59c-6.75 0-12.22-5.47-12.22-12.21 0-6.75 5.47-12.22 12.22-12.22h149.59c6.75 0 12.22 5.47 12.22 12.22 0 6.74-5.47 12.21-12.22 12.21z" fill="#c1cae7"/><path d="m525.22 596.93c-18.64 0-33.75-15.11-33.75-33.75v-61.88h-124.93v56.44h32.68c19.49 0 35.28 15.79 35.28 35.28v392.16h18.64v-221.64c0-20.69 16.76-37.45 37.44-37.45h49.15v-129.17h-14.52z" fill="#d0dbf0"/><path d="m1114.44 436.78h-67.59c-3.96 0-7.16-3.21-7.16-7.17v-33.29c0-3.96 3.21-7.17 7.16-7.17h67.59c3.96 0 7.17 3.21 7.17 7.17v33.29c0 3.96-3.21 7.17-7.17 7.17z" fill="#e0e8f6"/><path d="m1093.39 375.74h-25.49v-66.24c0-2.7 2.19-4.89 4.89-4.89h15.72c2.7 0 4.89 2.19 4.89 4.89v66.24z" fill="#e0e8f6"/><path d="m1009.11 1419.64h-352.45c-51.55 0-93.34-41.79-93.34-93.34v-874.19c0-51.55 41.79-93.34 93.34-93.34h352.45c51.55 0 93.34 41.79 93.34 93.34v874.19c0 51.55-41.79 93.34-93.34 93.34z" fill="#535565"/><path d="m988.94 1392.3h-312.11c-47.59 0-86.17-38.58-86.17-86.17v-833.84c0-47.6 38.58-86.17 86.17-86.17h312.11c47.59 0 86.17 38.58 86.17 86.17v833.84c0 47.59-38.58 86.17-86.17 86.17z" fill="#ffe3e0"/><path d="m988.94 1392.3h-312.11c-47.59 0-86.17-38.58-86.17-86.17v-833.84c0-47.6 38.58-86.17 86.17-86.17h312.11c47.59 0 86.17 38.58 86.17 86.17v833.84c0 47.59-38.58 86.17-86.17 86.17z" fill="#ff9500"/><path d="m910.67 423.99h-155.56c-19.48 0-35.27-15.79-35.27-35.26v-15.66h226.09v15.66c0 19.47-15.79 35.26-35.26 35.26z" fill="#535565"/><path d="m977.23 1250.71h-288.68c-11.85 0-21.46-10.06-21.46-22.46v-296.82c0-12.41 9.61-22.46 21.46-22.46h288.68c11.85 0 21.45 10.06 21.45 22.46v296.82c0 12.4-9.61 22.46-21.45 22.46z" fill="#e5e5e5"/><path d="m969.54 610.01h-273.32c-6.62 0-11.99-5.37-11.99-11.99s5.37-11.99 11.99-11.99h273.32c6.62 0 11.99 5.37 11.99 11.99s-5.37 11.99-11.99 11.99z" fill="#fff"/><path d="m910.39 665.61h-155.02c-6.62 0-11.98-5.36-11.98-11.98s5.37-11.99 11.98-11.99h155.02c6.62 0 11.99 5.37 11.99 11.99s-5.37 11.98-11.99 11.98z" fill="#fff"/><path d="m997.89 1273.96h-330.01c-12.3 0-22.26-10.33-22.26-23.07v-299.79c0-12.74 9.96-23.07 22.26-23.07h330.01c12.29 0 22.26 10.33 22.26 23.07v299.79c0 12.74-9.97 23.07-22.26 23.07z" fill="#eee"/><path d="m1017.29 1291.06h-368.8c-12.64 0-22.87-10.24-22.87-22.87v-300.19c0-12.63 10.24-22.87 22.87-22.87h368.8c12.63 0 22.87 10.25 22.87 22.87v300.19c0 12.63-10.24 22.87-22.87 22.87z" fill="#fff"/><path d="m704.49 1067.54c-25.41 0-46-20.59-46-46 0-25.4 20.59-46 46-46 25.4 0 46 20.6 46 46s-20.6 46-46 46z" fill="#efefef"/><path d="m961.65 1010.71h-176.76c-4.2 0-7.6-3.4-7.6-7.6s3.4-7.6 7.6-7.6h176.76c4.2 0 7.6 3.4 7.6 7.6 0 4.21-3.4 7.6-7.6 7.6z" fill="#efefef"/><path d="m625.61 1100.01h414.55v-1.12h-414.55z" fill="#e2e2e2"/><path d="m993.19 1249.72h-313.16c-8.49 0-15.37-6.88-15.37-15.37v-35.05c0-8.49 6.88-15.37 15.37-15.37h313.16c8.49 0 15.37 6.88 15.37 15.37v35.05c0 8.49-6.88 15.37-15.37 15.37z" fill="#17bb42"/><path d="m799.24 1229.43c-2.3 1.19-5.16 1.79-8.59 1.79-4.43 0-7.98-1.4-10.65-4.2s-4-6.47-4-11.02c0-4.89 1.5-8.84 4.51-11.85 3-3.01 6.8-4.52 11.39-4.52 2.96 0 5.41.42 7.35 1.25v5.03c-2.06-1.22-4.33-1.83-6.82-1.83-3.31 0-5.99 1.06-8.04 3.18s-3.08 4.94-3.08 8.48c0 3.36.96 6.04 2.88 8.04s4.44 2.99 7.57 2.99c2.88 0 5.38-.68 7.5-2.05v4.69zm14.92 1.79c-3.37 0-6.05-1.02-8.06-3.06s-3.02-4.74-3.02-8.11c0-3.66 1.05-6.53 3.15-8.59 2.09-2.06 4.92-3.09 8.47-3.09 3.41 0 6.07 1 7.97 3s2.85 4.78 2.85 8.33c0 3.48-1.02 6.27-3.08 8.36-2.05 2.09-4.81 3.14-8.28 3.14zm.24-18.9c-1.93 0-3.46.68-4.58 2.03s-1.68 3.21-1.68 5.58c0 2.29.57 4.09 1.71 5.4s2.66 1.97 4.56 1.97c1.95 0 3.44-.65 4.48-1.94s1.57-3.13 1.57-5.52c0-2.4-.52-4.25-1.57-5.56-1.04-1.31-2.54-1.96-4.48-1.96zm35.58 18.39h-4.94v-12.3c0-4.08-1.44-6.12-4.33-6.12-1.51 0-2.75.56-3.73 1.69s-1.47 2.55-1.47 4.27v12.44h-4.97v-21.82h4.97v3.62h.08c1.64-2.75 3.99-4.13 7.08-4.13 2.37 0 4.18.77 5.44 2.31 1.25 1.54 1.87 3.77 1.87 6.68v13.34z" fill="#fff"/><path d="m868.34 1202.43c-.67-.38-1.43-.58-2.28-.58-2.4 0-3.6 1.36-3.6 4.07v2.96h5.07v3.88h-5.05v17.94h-4.94v-17.94h-3.73v-3.88h3.73v-3.54c0-2.3.75-4.12 2.26-5.44 1.51-1.33 3.39-1.99 5.65-1.99 1.22 0 2.19.13 2.9.4v4.11z" fill="#fff"/><path d="m873.51 1204.3c-.81 0-1.5-.26-2.08-.79s-.86-1.2-.86-2c0-.81.29-1.48.86-2.02s1.27-.81 2.08-.81c.84 0 1.55.27 2.13.81s.87 1.21.87 2.02c0 .77-.29 1.43-.87 1.97-.58.55-1.29.82-2.13.82zm2.45 26.4h-4.94v-21.82h4.94z" fill="#fff"/><path d="m895.08 1213.59c-.6-.47-1.46-.7-2.58-.7-1.46 0-2.68.66-3.66 1.98s-1.47 3.12-1.47 5.39v10.44h-4.94v-21.82h4.94v4.5h.09c.48-1.53 1.23-2.73 2.23-3.59s2.12-1.29 3.36-1.29c.9 0 1.58.13 2.05.4v4.69z" fill="#fff"/><path d="m800.08 1040.31c.48-.49.65-1.2.45-1.86-.21-.67-.75-1.14-1.4-1.23l-5.78-.88c-.11-.01-.21-.09-.26-.2l-2.58-5.45c-.3-.62-.89-1.01-1.56-1.01s-1.26.39-1.56 1.01l-2.58 5.45c-.04.11-.15.18-.26.2l-5.77.88c-.66.1-1.2.57-1.41 1.23-.21.67-.04 1.38.44 1.86l4.18 4.25c.08.08.12.2.1.32l-.99 6c-.11.68.16 1.36.69 1.77.54.41 1.24.46 1.83.14l5.17-2.83c.1-.06.22-.06.32 0l5.16 2.83c.26.14.54.21.81.21.37 0 .72-.11 1.02-.35.54-.41.81-1.09.7-1.77l-.99-6c-.02-.12.02-.24.1-.33z" fill="#ffd400"/><path d="m827.74 1040.31c.48-.49.65-1.2.45-1.86-.21-.67-.75-1.14-1.4-1.23l-5.77-.88c-.11-.01-.21-.09-.26-.2l-2.58-5.45c-.3-.62-.89-1.01-1.56-1.01s-1.26.39-1.55 1.01l-2.59 5.45c-.05.11-.15.18-.26.2l-5.77.88c-.66.1-1.2.57-1.41 1.23-.21.67-.03 1.38.44 1.86l4.18 4.25c.08.08.12.2.1.32l-.99 6c-.11.68.16 1.36.69 1.77.54.41 1.24.46 1.83.14l5.17-2.83c.1-.06.22-.06.32 0l5.16 2.83c.25.14.54.21.81.21.36 0 .72-.11 1.02-.35.54-.41.81-1.09.7-1.77l-.99-6c-.02-.12.02-.24.1-.33l4.17-4.24z" fill="#ffd400"/><path d="m857.47 1040.31c.48-.49.65-1.2.44-1.86-.21-.67-.75-1.14-1.4-1.23l-5.77-.88c-.11-.01-.21-.09-.26-.2l-2.58-5.45c-.3-.62-.89-1.01-1.57-1.01-.67 0-1.26.39-1.55 1.01l-2.59 5.45c-.04.11-.15.18-.25.2l-5.78.88c-.66.1-1.2.57-1.4 1.23-.21.67-.04 1.38.44 1.86l4.18 4.25c.08.08.12.2.1.32l-.99 6c-.11.68.16 1.36.69 1.77.54.41 1.25.46 1.83.14l5.17-2.83c.1-.06.22-.06.32 0l5.16 2.83c.26.14.54.21.81.21.36 0 .72-.11 1.02-.35.54-.41.8-1.09.7-1.77l-.99-6c-.02-.12.02-.24.1-.33l4.18-4.24z" fill="#ffd400"/><path d="m885.12 1040.31c.48-.49.65-1.2.44-1.86-.2-.67-.75-1.14-1.4-1.23l-5.77-.88c-.12-.01-.21-.09-.27-.2l-2.58-5.45c-.3-.62-.9-1.01-1.57-1.01s-1.27.39-1.56 1.01l-2.58 5.45c-.05.11-.15.18-.26.2l-5.77.88c-.66.1-1.2.57-1.41 1.23-.2.67-.03 1.38.45 1.86l4.17 4.25c.08.08.12.2.1.32l-.99 6c-.11.68.16 1.36.7 1.77s1.24.46 1.83.14l5.16-2.83c.1-.06.22-.06.32 0l5.16 2.83c.26.14.54.21.81.21.36 0 .71-.11 1.02-.35.54-.41.8-1.09.69-1.77l-.98-6c-.02-.12.01-.24.1-.33l4.18-4.24z" fill="#ffd400"/><path d="m913.61 1040.31c.48-.49.65-1.2.44-1.86-.21-.67-.75-1.14-1.4-1.23l-5.78-.88c-.11-.01-.21-.09-.26-.2l-2.58-5.45c-.3-.62-.9-1.01-1.57-1.01s-1.27.39-1.56 1.01l-2.58 5.45c-.04.11-.15.18-.26.2l-5.77.88c-.66.1-1.21.57-1.41 1.23-.2.67-.04 1.38.45 1.86l4.17 4.25c.08.08.12.2.1.32l-.99 6c-.11.68.16 1.36.7 1.77s1.24.46 1.83.14l5.16-2.83c.1-.06.22-.06.32 0l5.16 2.83c.26.14.54.21.81.21.36 0 .72-.11 1.02-.35.54-.41.8-1.09.69-1.77l-.98-6c-.02-.12.02-.24.1-.33l4.18-4.24z" fill="#ffd400"/></g></svg>