<svg clip-rule="evenodd" fill-rule="evenodd" height="2.25617in" image-rendering="optimizeQuality" shape-rendering="geometricPrecision" text-rendering="geometricPrecision" viewBox="0 0 1707.73 1707.73" width="2.25617in" xmlns="http://www.w3.org/2000/svg"><g fill-rule="nonzero"><path d="m853.87 0c-471.57 0-853.87 382.29-853.87 853.87 0 471.53 382.22 853.79 853.73 853.87h.27c471.52-.07 853.73-382.33 853.73-853.87 0-471.58-382.29-853.87-853.87-853.87z" fill="#eff3f9"/><path d="m650.68 1421.22c-61.34 0-111.05-49.72-111.05-111.05 0-61.34 49.72-111.05 111.05-111.05s111.05 49.72 111.05 111.05-49.72 111.05-111.05 111.05z" fill="#fff"/><path d="m426.11 1191.38c-17.9 0-32.42-14.51-32.42-32.42 0-17.9 14.52-32.42 32.42-32.42s32.42 14.52 32.42 32.42-14.52 32.42-32.42 32.42z" fill="#fff"/><path d="m957.73 1353.37c-11.93 0-21.6-9.68-21.6-21.6 0-11.93 9.67-21.6 21.6-21.6s21.6 9.67 21.6 21.6-9.67 21.6-21.6 21.6z" fill="#fff"/><path d="m1256.65 333.51c-11.93 0-21.6-9.67-21.6-21.6s9.67-21.6 21.6-21.6 21.6 9.67 21.6 21.6-9.67 21.6-21.6 21.6z" fill="#fff"/><path d="m1159.92 529.76h48.37v-4.21c0-14.21-11.52-25.73-25.74-25.73h-138.81c-14.21 0-25.73 11.52-25.73 25.73v410.33h107.88v-372.09c0-18.79 15.24-34.03 34.03-34.03z" fill="#e0e8f6"/><path d="m871.95 935.88h117.99v-355h-117.99z" fill="#d0dbf0"/><path d="m1164.96 480.3h-103.64c-3.96 0-7.17-3.21-7.17-7.17v-42.05c0-3.96 3.21-7.17 7.17-7.17h103.64c3.96 0 7.17 3.21 7.17 7.17v42.05c0 3.96-3.21 7.17-7.17 7.17z" fill="#e0e8f6"/><path d="m846.4 935.88h-240.19v-604.37c0-13.26 12.46-22.99 25.33-19.78l199.4 49.74c9.08 2.26 15.46 10.42 15.46 19.78z" fill="#d0dbf0"/><path d="m499.73 935.87v-208.9c0-18.73 15.19-33.92 33.92-33.92h38.47v242.82h-72.4z" fill="#e0e8f6"/><path d="m1104.63 896.11c-4.98 0-9.01-4.03-9.01-9.01v-317.1c0-4.98 4.03-9.01 9.01-9.01 4.97 0 9.01 4.03 9.01 9.01v317.1c0 4.97-4.03 9.01-9.01 9.01z" fill="#c0cbe2"/><path d="m1054.64 896.11c-4.98 0-9.01-4.03-9.01-9.01v-317.1c0-4.98 4.03-9.01 9.01-9.01 4.97 0 9.01 4.03 9.01 9.01v317.1c0 4.97-4.03 9.01-9.01 9.01z" fill="#c0cbe2"/><path d="m800.85 452.11h-142.21c-7.78 0-14.1-6.31-14.1-14.1s6.31-14.1 14.1-14.1h142.21c7.78 0 14.1 6.31 14.1 14.1 0 7.78-6.31 14.1-14.1 14.1z" fill="#c1cae7"/><path d="m800.85 513.91h-142.21c-7.78 0-14.1-6.31-14.1-14.1s6.31-14.1 14.1-14.1h142.21c7.78 0 14.1 6.31 14.1 14.1 0 7.78-6.31 14.1-14.1 14.1z" fill="#c1cae7"/><path d="m800.85 575.72h-142.21c-7.78 0-14.1-6.31-14.1-14.1 0-7.78 6.31-14.1 14.1-14.1h142.21c7.78 0 14.1 6.31 14.1 14.1s-6.31 14.1-14.1 14.1z" fill="#c1cae7"/><path d="m800.85 637.53h-142.21c-7.78 0-14.1-6.31-14.1-14.1s6.31-14.1 14.1-14.1h142.21c7.78 0 14.1 6.31 14.1 14.1 0 7.78-6.31 14.1-14.1 14.1z" fill="#c1cae7"/><path d="m800.85 699.34h-142.21c-7.78 0-14.1-6.31-14.1-14.1s6.31-14.1 14.1-14.1h142.21c7.78 0 14.1 6.31 14.1 14.1 0 7.78-6.31 14.1-14.1 14.1z" fill="#c1cae7"/><path d="m800.85 761.15h-142.21c-7.78 0-14.1-6.31-14.1-14.1 0-7.78 6.31-14.1 14.1-14.1h142.21c7.78 0 14.1 6.31 14.1 14.1s-6.31 14.1-14.1 14.1z" fill="#c1cae7"/><path d="m800.85 822.96h-142.21c-7.78 0-14.1-6.31-14.1-14.1s6.31-14.1 14.1-14.1h142.21c7.78 0 14.1 6.31 14.1 14.1 0 7.78-6.31 14.1-14.1 14.1z" fill="#c1cae7"/><path d="m800.85 884.77h-142.21c-7.78 0-14.1-6.31-14.1-14.1 0-7.8 6.31-14.1 14.1-14.1h142.21c7.78 0 14.1 6.31 14.1 14.1 0 7.78-6.31 14.1-14.1 14.1z" fill="#c1cae7"/><path d="m444.33 935.88h-190.28v-375.36c0-16.99 13.77-30.76 30.76-30.76h128.76c16.99 0 30.76 13.77 30.76 30.76z" fill="#e0e8f6"/><path d="m408.3 610.69h-118.22c-6.62 0-11.99-5.36-11.99-11.99v-.45c0-6.62 5.37-11.99 11.99-11.99h118.22c6.62 0 11.99 5.37 11.99 11.99v.45c0 6.62-5.36 11.99-11.99 11.99z" fill="#c1cae7"/><path d="m408.3 664.25h-118.22c-6.62 0-11.99-5.37-11.99-11.99v-.45c0-6.62 5.37-11.99 11.99-11.99h118.22c6.62 0 11.99 5.37 11.99 11.99v.45c0 6.62-5.36 11.99-11.99 11.99z" fill="#c1cae7"/><path d="m408.3 717.81h-118.22c-6.62 0-11.99-5.37-11.99-11.99v-.46c0-6.62 5.37-11.99 11.99-11.99h118.22c6.62 0 11.99 5.37 11.99 11.99v.46c0 6.62-5.36 11.99-11.99 11.99z" fill="#c1cae7"/><path d="m408.3 771.37h-118.22c-6.62 0-11.99-5.36-11.99-11.99v-.45c0-6.62 5.37-11.99 11.99-11.99h118.22c6.62 0 11.99 5.37 11.99 11.99v.45c0 6.62-5.36 11.99-11.99 11.99z" fill="#c1cae7"/><path d="m408.3 824.94h-118.22c-6.62 0-11.99-5.37-11.99-11.99v-.46c0-6.62 5.37-11.99 11.99-11.99h118.22c6.62 0 11.99 5.37 11.99 11.99v.46c0 6.62-5.36 11.99-11.99 11.99z" fill="#c1cae7"/><path d="m408.3 878.49h-118.22c-6.62 0-11.99-5.36-11.99-11.99v-.45c0-6.62 5.37-11.99 11.99-11.99h118.22c6.62 0 11.99 5.37 11.99 11.99v.45c0 6.62-5.36 11.99-11.99 11.99z" fill="#c1cae7"/><path d="m1370.3 952.91h-232.91v-372.09c0-18.79 15.23-34.03 34.03-34.03h164.85c18.79 0 34.03 15.23 34.03 34.03z" fill="#e0e8f6"/><path d="m1328.66 627.73h-149.63c-6.75 0-12.21-5.47-12.21-12.22 0-6.74 5.47-12.22 12.21-12.22h149.63c6.75 0 12.22 5.47 12.22 12.22s-5.47 12.22-12.22 12.22z" fill="#c1cae7"/><path d="m1328.66 681.29h-149.63c-6.75 0-12.21-5.47-12.21-12.22s5.47-12.22 12.21-12.22h149.63c6.75 0 12.22 5.47 12.22 12.22s-5.47 12.22-12.22 12.22z" fill="#c1cae7"/><path d="m1328.66 734.85h-149.63c-6.75 0-12.21-5.47-12.21-12.22s5.47-12.21 12.21-12.21h149.63c6.75 0 12.22 5.47 12.22 12.21 0 6.75-5.47 12.22-12.22 12.22z" fill="#c1cae7"/><path d="m557.6 547.53c-18.64 0-33.75-15.11-33.75-33.76v-61.89h-124.96v56.45h32.7c19.49 0 35.29 15.8 35.29 35.29v392.25h18.63v-221.7c0-20.69 16.77-37.46 37.46-37.46h49.16v-129.2h-14.52z" fill="#d0dbf0"/><path d="m1146.95 387.35h-67.6c-3.96 0-7.17-3.21-7.17-7.17v-33.3c0-3.96 3.21-7.17 7.17-7.17h67.6c3.96 0 7.17 3.21 7.17 7.17v33.3c0 3.96-3.21 7.17-7.17 7.17z" fill="#e0e8f6"/><path d="m1125.89 326.29h-25.49v-66.25c0-2.7 2.19-4.89 4.89-4.89h15.72c2.7 0 4.88 2.19 4.88 4.89z" fill="#e0e8f6"/><path d="m1189.11 998.35h-749.66c-10.59 0-19.17-8.58-19.17-19.17 0-10.58 8.58-19.17 19.17-19.17h749.66c10.59 0 19.17 8.59 19.17 19.17 0 10.59-8.58 19.17-19.17 19.17z" fill="#7e89a0"/><path d="m873.77 828.53-69.17 58.06c-11.75 9.86-29.28 8.33-39.15-3.42-9.86-11.76-8.34-29.28 3.42-39.15l75.88-63.69c8.05-6.75 20.04-5.7 26.8 2.34l5.63 6.71c9.86 11.75 8.34 29.28-3.42 39.15z" fill="#dbaa79"/><path d="m871.33 816.27-78.38 65.79c-9.21 7.73-22.95 6.53-30.68-2.68l-2.43-2.9c-7.73-9.21-6.53-22.95 2.68-30.68l78.38-65.79c9.21-7.73 22.94-6.53 30.67 2.68l2.44 2.9c7.73 9.21 6.53 22.95-2.68 30.68z" fill="#eac897"/><path d="m593.44 1104.8c-1.04 4.16-12.48 210.07-9.36 211.11 3.12 1.03 162.23-86.32 162.23-86.32l18.72-107.12-171.59-17.68z" fill="#dbaa79"/><path d="m807.66 1090.24c-5.2 12.48-12.81 132.13-68.64 197.59-64.75 75.92-108.16 69.68-117.52 71.76-4.15 8.29-11.57 21.5-19.35 34.97-14.22 24.62-39.42 41.11-67.73 43.74-3.57.33-7.46.78-11.71 1.36-33.69 4.64-36.4 21.84-60.32 35.36s-50.96 32.24-88.4 13.52c-35.04-17.52-64.28 6.19-73.74 15.36l-.87-.74 149.49-260.05s-6.24-175.76 23.92-226.71 126.87-146.63 126.87-146.63 65.52 55.12-42.63 138.31c0 33.28-2.08 58.24-2.08 58.24s82.16 23.92 57.2 203.83c54.07 0 99.84-12.48 114.39-62.39 14.56-35.36 23.92-50.96 23.92-50.96-12.48 0 10.4-277.66 10.4-277.66l46.8 211.11z" fill="#eac897"/><path d="m767.71 1207.94h-188.7c-27.6 0-49.97-22.37-49.97-49.98v-468.05c0-27.59 22.37-49.97 49.97-49.97h188.7c27.6 0 49.97 22.38 49.97 49.97v468.05c0 27.6-22.37 49.98-49.97 49.98z" fill="#535565"/><path d="m756.91 1193.3h-167.11c-25.48 0-46.14-20.66-46.14-46.14v-446.45c0-25.48 20.65-46.13 46.14-46.13h167.11c25.48 0 46.14 20.65 46.14 46.13v446.45c0 25.48-20.65 46.14-46.14 46.14z" fill="#ffe3e0"/><path d="m756.91 1193.3h-167.11c-25.48 0-46.14-20.66-46.14-46.14v-446.45c0-25.48 20.65-46.13 46.14-46.13h167.11c25.48 0 46.14 20.65 46.14 46.13v446.45c0 25.48-20.65 46.14-46.14 46.14z" fill="#ff9500"/><path d="m744.03 820.71c0 39.03-31.64 70.67-70.67 70.67s-70.67-31.64-70.67-70.67 31.64-70.67 70.67-70.67 70.67 31.64 70.67 70.67z" fill="#fff"/></g><path d="m645.32 792.16c7.27-6.99 17.15-11.29 28.03-11.29 10.89 0 20.76 4.3 28.03 11.29" fill="none" stroke="#4ce5b1" stroke-miterlimit="10" stroke-width="6.14"/><path d="m704.41 847.29c-7.42 8.87-18.58 14.52-31.05 14.52-12.48 0-23.64-5.65-31.06-14.52" fill="none" stroke="#4ce5b1" stroke-miterlimit="10" stroke-width="6.14"/><path d="m633.75 812.99c-.57 2.7-.87 5.49-.87 8.35 0 9.88 3.54 18.93 9.42 25.95" fill="none" stroke="#4ce5b1" stroke-miterlimit="10" stroke-width="6.14"/><path d="m704.41 847.29c5.88-7.03 9.42-16.07 9.42-25.95 0-2.86-.31-5.65-.87-8.35" fill="none" stroke="#4ce5b1" stroke-miterlimit="10" stroke-width="6.14"/><path d="m645.32 792.16c-5.75 5.53-9.88 12.73-11.58 20.83" fill="none" stroke="#4ce5b1" stroke-miterlimit="10" stroke-width="6.14"/><path d="m701.39 792.16c5.75 5.53 9.88 12.73 11.58 20.83" fill="none" stroke="#4ce5b1" stroke-miterlimit="10" stroke-width="6.14"/><path d="m674.28 830.81c-.31 0-.62-.02-.92-.02-.31 0-.62.01-.93.02" fill="none" stroke="#4ce5b1" stroke-miterlimit="10" stroke-width="6.14"/><path d="m704.41 847.29c-5.85-9.61-17.12-16.18-30.13-16.48" fill="none" stroke="#4ce5b1" stroke-miterlimit="10" stroke-width="6.14"/><path d="m672.43 830.81c-13.01.3-24.28 6.87-30.13 16.48" fill="none" stroke="#4ce5b1" stroke-miterlimit="10" stroke-width="6.14"/><path d="m674.28 830.81c19.07-.24 34.89-7.8 38.68-17.81" fill="none" stroke="#4ce5b1" stroke-miterlimit="10" stroke-width="6.14"/><path d="m674.28 830.81c-.31 0-.62.01-.92.01-.31 0-.62-.01-.93-.01" fill="none" stroke="#4ce5b1" stroke-miterlimit="10" stroke-width="6.14"/><path d="m672.43 830.81c-19.07-.24-34.89-7.8-38.68-17.81" fill="none" stroke="#4ce5b1" stroke-miterlimit="10" stroke-width="6.14"/><path d="m715 674.86h-83.28c-10.43 0-18.88-8.45-18.88-18.88v-8.39h121.05v8.39c0 10.43-8.45 18.88-18.88 18.88z" fill="#535565" fill-rule="nonzero"/><path d="m668.24 1132.7c-39.95-8.96-65.01-48.61-56.06-88.5.4-1.75 1.95-2.98 3.72-2.99l17.04-.1c1.86-.01 3.45 1.31 3.79 3.13l3.56 19.12c.32 1.68-.52 3.36-2.05 4.13l-11.17 5.61c2.99 13.48 10.73 25.52 21.41 33.8l9.84-7.71c1.35-1.05 3.23-1.09 4.61-.09l15.76 11.39c1.5 1.09 2.01 3.09 1.22 4.77l-7.38 15.36c-.77 1.6-2.55 2.47-4.29 2.08z" fill="#fff" fill-rule="nonzero"/><path d="m680.98 1072.71c0 3.98-3.22 7.2-7.2 7.2s-7.2-3.22-7.2-7.2 3.22-7.2 7.2-7.2c3.97 0 7.2 3.22 7.2 7.2z" fill="#fff" fill-rule="nonzero"/><path d="m704.11 1072.71c0 3.98-3.22 7.2-7.2 7.2s-7.2-3.22-7.2-7.2 3.22-7.2 7.2-7.2c3.97 0 7.2 3.22 7.2 7.2z" fill="#fff" fill-rule="nonzero"/><path d="m727.25 1072.71c0 3.98-3.22 7.2-7.2 7.2s-7.2-3.22-7.2-7.2 3.22-7.2 7.2-7.2c3.97 0 7.2 3.22 7.2 7.2z" fill="#fff" fill-rule="nonzero"/><path d="m748.9 946.03h-146.34c-3.55 0-6.42-2.87-6.42-6.42 0-3.54 2.87-6.42 6.42-6.42h146.34c3.54 0 6.42 2.87 6.42 6.42s-2.87 6.42-6.42 6.42z" fill="#fff" fill-rule="nonzero"/><path d="m717.23 975.8h-82.99c-3.55 0-6.42-2.87-6.42-6.42 0-3.54 2.87-6.42 6.42-6.42h82.99c3.54 0 6.42 2.88 6.42 6.42 0 3.55-2.88 6.42-6.42 6.42z" fill="#fff" fill-rule="nonzero"/><path d="m520.4 1064.09c96.98 18.25 101.85 89.29 96.14 206.66-92.1-11.77-109.68-120.91-109.68-120.91l13.54-85.76z" fill="#eac897" fill-rule="nonzero"/><path d="m462.23 1044.05c22.01-107.21 105.13-176.14 105.13-176.14s66.02 63.26-37.73 151.89c0 38.15.75 48.28.75 48.28l-68.16-24.02z" fill="#eac897" fill-rule="nonzero"/><path d="m823.25 982.55h-31.18c-16.18 0-29.3-13.11-29.3-29.3 0-16.18 13.12-29.3 29.3-29.3h31.18c16.18 0 29.3 13.12 29.3 29.3 0 16.19-13.12 29.3-29.3 29.3z" fill="#eac897" fill-rule="nonzero"/><path d="m811.5 1049.11h-21.84c-14.85 0-26.89-12.04-26.89-26.89v-4.83c0-14.85 12.05-26.89 26.89-26.89h21.84c14.85 0 26.89 12.04 26.89 26.89v4.83c0 14.85-12.04 26.89-26.89 26.89z" fill="#eac897" fill-rule="nonzero"/><path d="m818.62 1119.82h-4.32c-16.18 0-29.3-13.11-29.3-29.3 0-16.18 13.12-29.3 29.3-29.3h4.32c16.18 0 29.3 13.11 29.3 29.3s-13.12 29.3-29.3 29.3z" fill="#eac897" fill-rule="nonzero"/><path d="m799.83 974.99c.29.01.57.01.86.01 3.54-.05 5.1-4.32 2.67-6.9-3.65-3.89-5.89-9.1-5.89-14.86 0-5.75 2.25-10.98 5.89-14.86 2.4-2.56.91-6.83-2.6-6.89-.13 0-.26 0-.4 0-12.02 0-21.77 9.75-21.75 21.79.02 11.57 9.64 21.42 21.21 21.71z" fill="#ecdbd0" fill-rule="nonzero"/><path d="m797.25 1041.6c1.31.05 2.6-.03 3.84-.22 2.46-.37 3.33-3.36 1.45-4.99-4.63-4.01-7.54-9.95-7.5-16.55.05-6.61 3.05-12.49 7.73-16.44 1.88-1.59 1.11-4.6-1.33-5.01-1.09-.18-2.21-.28-3.34-.29-12.02-.08-21.84 9.61-21.91 21.63-.07 11.57 9.49 21.49 21.06 21.86z" fill="#ecdbd0" fill-rule="nonzero"/><path d="m809.99 1107.77c3.12.76 6.13.65 8.88-.12 1.07-.3 1.25-1.7.36-2.34-4.54-3.24-7.45-8.58-7.33-14.57.13-6.94 10.09-12.31 10.22-15.56.1-2.54-4.84-1.96-7.55-1.89-10.13.25-18.42 8.21-17.81 18.57.44 7.53 5.9 14.12 13.23 15.91z" fill="#ecdbd0" fill-rule="nonzero"/><path d="m556.82 1476.29-183.54-143.53 26.9-34.41 183.55 143.53z" fill="#ececec" fill-rule="nonzero"/><path d="m245.43 1452.86 106.79-136.57 225.65 176.45-100.01 127.89c-86.8-42.66-165.3-99.59-232.43-167.78z" fill="#535565" fill-rule="nonzero"/><path d="m432.81 1379.31-63.6-49.73 26.91-34.4 63.59 49.73z" fill="#cfcfcf" fill-rule="nonzero"/><path d="m245.88 1453.33 106.25-135.87 69.2 54.11-110.48 141.28c-22.68-18.71-44.34-38.6-64.96-59.52z" fill="#38414a" fill-rule="nonzero"/><path d="m556.02 878.39s8.01 13.31 8.01 17.6-28.52 36.64-36.99 39.5c-3.33 1.13-20.05 2.9-20.05 2.9s24.99-39.16 49.03-60.01z" fill="#ecdbd0" fill-rule="nonzero"/></svg>