<svg clip-rule="evenodd" fill-rule="evenodd" height="219.593" image-rendering="optimizeQuality" shape-rendering="geometricPrecision" text-rendering="geometricPrecision" viewBox="0 0 1737.17 1737.17" width="219.593" xmlns="http://www.w3.org/2000/svg"><g fill-rule="nonzero"><path d="m868.58 0c-479.7 0-868.58 388.88-868.58 868.58s388.88 868.58 868.58 868.58 868.58-388.88 868.58-868.58-388.88-868.58-868.58-868.58z" fill="#eff3f9"/><path d="m661.9 1445.72c-62.39 0-112.97-50.58-112.97-112.97s50.58-112.97 112.97-112.97 112.97 50.57 112.97 112.97c0 62.38-50.57 112.97-112.97 112.97zm-228.45-233.81c-18.21 0-32.97-14.76-32.97-32.98 0-18.21 14.76-32.98 32.97-32.98s32.98 14.77 32.98 32.98c0 18.22-14.76 32.98-32.98 32.98zm540.79 164.79c-12.14 0-21.97-9.84-21.97-21.98 0-12.13 9.84-21.97 21.97-21.97s21.97 9.83 21.97 21.97-9.84 21.98-21.97 21.98zm304.07-1037.44c-12.14 0-21.97-9.84-21.97-21.97 0-12.14 9.84-21.97 21.97-21.97 12.14 0 21.97 9.84 21.97 21.97s-9.83 21.97-21.97 21.97z" fill="#fff"/><path d="m1179.91 538.89h49.2v-4.28c0-14.46-11.72-26.17-26.18-26.17h-141.21c-14.46 0-26.17 11.72-26.17 26.17v417.4h109.74v-378.5c0-19.12 15.5-34.62 34.62-34.62z" fill="#e0e8f6"/><path d="m886.98 952.01h120.02v-361.12h-120.02z" fill="#d0dbf0"/><path d="m1185.04 488.58h-105.42c-4.03 0-7.3-3.26-7.3-7.3v-42.78c0-4.02 3.26-7.3 7.3-7.3h105.42c4.03 0 7.3 3.27 7.3 7.3v42.78c0 4.03-3.26 7.3-7.3 7.3z" fill="#e0e8f6"/><path d="m860.98 952.01h-244.33v-614.79c0-13.49 12.68-23.39 25.77-20.13l202.83 50.6c9.24 2.3 15.72 10.6 15.72 20.13v564.19z" fill="#d0dbf0"/><path d="m508.35 952.01v-212.5c0-19.05 15.44-34.5 34.5-34.5h39.14v247.01h-73.64z" fill="#e0e8f6"/><path d="m1123.66 911.56c-5.06 0-9.16-4.1-9.16-9.16v-322.56c0-5.07 4.1-9.16 9.16-9.16s9.16 4.1 9.16 9.16v322.56c0 5.06-4.1 9.16-9.16 9.16zm-50.84 0c-5.06 0-9.16-4.1-9.16-9.16v-322.56c0-5.07 4.1-9.16 9.16-9.16s9.16 4.1 9.16 9.16v322.56c0 5.06-4.1 9.16-9.16 9.16z" fill="#c0cbe2"/><path d="m814.65 459.9h-144.65c-7.92 0-14.34-6.42-14.34-14.34s6.41-14.34 14.34-14.34h144.65c7.92 0 14.34 6.42 14.34 14.34s-6.42 14.34-14.34 14.34zm0 62.87h-144.65c-7.92 0-14.34-6.42-14.34-14.34s6.41-14.34 14.34-14.34h144.65c7.92 0 14.34 6.42 14.34 14.34s-6.42 14.34-14.34 14.34zm0 62.88h-144.65c-7.92 0-14.34-6.42-14.34-14.34s6.41-14.34 14.34-14.34h144.65c7.92 0 14.34 6.43 14.34 14.34 0 7.92-6.42 14.34-14.34 14.34zm0 62.87h-144.65c-7.92 0-14.34-6.42-14.34-14.34s6.41-14.35 14.34-14.35h144.65c7.92 0 14.34 6.42 14.34 14.35 0 7.92-6.42 14.34-14.34 14.34zm0 62.88h-144.65c-7.92 0-14.34-6.42-14.34-14.34s6.41-14.34 14.34-14.34h144.65c7.92 0 14.34 6.42 14.34 14.34s-6.42 14.34-14.34 14.34zm0 62.87h-144.65c-7.92 0-14.34-6.42-14.34-14.35 0-7.92 6.41-14.34 14.34-14.34h144.65c7.92 0 14.34 6.42 14.34 14.34s-6.42 14.35-14.34 14.35zm0 62.88h-144.65c-7.92 0-14.34-6.42-14.34-14.34s6.41-14.34 14.34-14.34h144.65c7.92 0 14.34 6.42 14.34 14.34s-6.42 14.34-14.34 14.34zm0 62.87h-144.65c-7.92 0-14.34-6.42-14.34-14.34 0-7.93 6.41-14.34 14.34-14.34h144.65c7.92 0 14.34 6.42 14.34 14.34s-6.42 14.34-14.34 14.34z" fill="#c1cae7"/><path d="m451.99 952.01h-193.56v-381.83c0-17.28 14.01-31.29 31.29-31.29h130.99c17.28 0 31.28 14.01 31.28 31.29z" fill="#e0e8f6"/><path d="m415.34 621.21h-120.26c-6.74 0-12.2-5.46-12.2-12.2v-.46c0-6.74 5.46-12.2 12.2-12.2h120.26c6.73 0 12.2 5.46 12.2 12.2v.46c0 6.74-5.46 12.2-12.2 12.2zm0 54.49h-120.26c-6.74 0-12.2-5.46-12.2-12.19v-.46c0-6.74 5.46-12.2 12.2-12.2h120.26c6.73 0 12.2 5.46 12.2 12.2v.46c0 6.74-5.46 12.19-12.2 12.19zm0 54.48h-120.26c-6.74 0-12.2-5.46-12.2-12.19v-.46c0-6.74 5.46-12.2 12.2-12.2h120.26c6.73 0 12.2 5.46 12.2 12.2v.46c0 6.74-5.46 12.19-12.2 12.19zm0 54.49h-120.26c-6.74 0-12.2-5.46-12.2-12.2v-.46c0-6.74 5.46-12.2 12.2-12.2h120.26c6.73 0 12.2 5.46 12.2 12.2v.46c0 6.74-5.46 12.2-12.2 12.2zm0 54.48h-120.26c-6.74 0-12.2-5.46-12.2-12.2v-.46c0-6.74 5.46-12.2 12.2-12.2h120.26c6.73 0 12.2 5.46 12.2 12.2v.46c0 6.73-5.46 12.2-12.2 12.2zm0 54.48h-120.26c-6.74 0-12.2-5.46-12.2-12.19v-.46c0-6.73 5.46-12.2 12.2-12.2h120.26c6.73 0 12.2 5.46 12.2 12.2v.46c0 6.74-5.46 12.19-12.2 12.19z" fill="#c1cae7"/><path d="m1393.92 969.34h-236.92v-378.5c0-19.12 15.49-34.61 34.61-34.61h167.69c19.12 0 34.62 15.49 34.62 34.61z" fill="#e0e8f6"/><path d="m1351.56 638.55h-152.21c-6.86 0-12.43-5.56-12.43-12.43 0-6.86 5.56-12.43 12.43-12.43h152.21c6.86 0 12.43 5.57 12.43 12.43 0 6.87-5.57 12.43-12.43 12.43zm0 54.48h-152.21c-6.86 0-12.43-5.56-12.43-12.43 0-6.86 5.56-12.43 12.43-12.43h152.21c6.86 0 12.43 5.56 12.43 12.43s-5.57 12.43-12.43 12.43zm0 54.49h-152.21c-6.86 0-12.43-5.56-12.43-12.43 0-6.86 5.56-12.43 12.43-12.43h152.21c6.86 0 12.43 5.56 12.43 12.43s-5.57 12.43-12.43 12.43z" fill="#c1cae7"/><path d="m567.22 556.96c-18.97 0-34.34-15.37-34.34-34.34v-62.95h-127.11v57.42h33.26c19.83 0 35.9 16.07 35.9 35.9v399.01h18.96v-225.51c0-21.05 17.06-38.1 38.1-38.1h50.01v-131.43h-14.77z" fill="#d0dbf0"/><path d="m1166.71 394.03h-68.77c-4.03 0-7.3-3.26-7.3-7.3v-33.87c0-4.03 3.27-7.3 7.3-7.3h68.77c4.03 0 7.3 3.26 7.3 7.3v33.87c0 4.03-3.26 7.3-7.3 7.3zm-21.41-62.11h-25.93v-67.39c0-2.74 2.22-4.98 4.97-4.98h15.99c2.74 0 4.97 2.23 4.97 4.98z" fill="#e0e8f6"/><path d="m668.2 1299.49h356.47l67.78 150.63h-489.52z" fill="#dce3ed"/><path d="m602.93 1470.2h489.52v-20.08h-489.52zm354.36-74.06h-150.62c-11.79 0-21.34-9.55-21.34-21.34 0-11.78 9.55-21.34 21.34-21.34h150.62c11.78 0 21.34 9.56 21.34 21.34 0 11.79-9.55 21.34-21.34 21.34z" fill="#b3c5d0"/><path d="m869.52 954.08c-145.37 0-259.63-111.97-259.63-254.43 0-142.47 114.26-254.43 259.63-254.43 145.38 0 259.63 111.97 259.63 254.43s-114.26 254.43-259.63 254.43z" fill="#fff"/><g fill="#4ce5b1"><path d="m869.53 1390.61c-.24-.26-24.41-26.57-59.32-68.72-32.47-39.21-81.48-100.9-130.5-172.12-55.11-80.04-99.01-155.55-130.5-224.44-39.36-86.11-59.32-162.04-59.32-225.68 0-50.01 10.08-98.62 29.96-144.47 9.55-22.02 21.36-43.28 35.11-63.18 13.62-19.71 29.25-38.25 46.45-55.12a382.833 382.833 0 0 1 56.24-45.52c20.31-13.48 42-25.05 64.47-34.41 46.79-19.48 96.39-29.36 147.42-29.36s100.62 9.88 147.41 29.36a382.783 382.783 0 0 1 64.47 34.41 383.483 383.483 0 0 1 56.24 45.52 378.236 378.236 0 0 1 46.45 55.12c13.75 19.9 25.56 41.16 35.11 63.18 19.87 45.85 29.95 94.46 29.95 144.47 0 63.65-19.96 139.58-59.32 225.68-31.49 68.88-75.39 144.4-130.5 224.44-27.06 39.31-71.67 101.07-130.5 172.12-34.91 42.15-59.07 68.46-59.31 68.72zm0-892.54c-55.71 0-107.57 20.77-146.04 58.46-38.47 37.7-59.66 88.53-59.66 143.12 0 54.58 21.19 105.41 59.66 143.11s90.34 58.46 146.04 58.46 107.56-20.76 146.03-58.46 59.66-88.53 59.66-143.11c0-54.59-21.19-105.42-59.66-143.12s-90.33-58.46-146.04-58.46z"/><path d="m869.52 1390.95c-.24-.26-24.36-26.5-59.32-68.72-32.47-39.21-81.48-100.9-130.5-172.11-55.11-80.04-99.01-155.55-130.5-224.44-39.36-86.1-59.32-162.03-59.32-225.68 0-50.01 10.08-98.61 29.96-144.47 9.55-22.03 21.36-43.29 35.11-63.19a379.495 379.495 0 0 1 46.45-55.12 382.833 382.833 0 0 1 56.24-45.52c20.31-13.48 42-25.05 64.47-34.41 46.79-19.48 96.38-29.36 147.41-29.36v170.48c-55.71 0-107.57 20.77-146.04 58.46-38.47 37.7-59.66 88.53-59.66 143.12s21.19 105.41 59.66 143.11 90.33 58.46 146.04 58.46v489.38z"/></g></g></svg>